<svg width="32" height="32" viewBox="0 0 32 32" fill="none" xmlns="http://www.w3.org/2000/svg">
<g clip-path="url(#clip0_4427_31470)">
<path d="M18.5295 21.0372C17.747 20.4913 16.9108 20.0465 16.0363 19.7067C17.1996 18.6493 17.9714 17.1681 18.1056 15.5099C19.8698 13.7909 22.1823 12.8485 24.6613 12.8485C26.5966 12.8485 28.4548 13.4313 30.0353 14.5336C30.6017 14.9286 31.3805 14.7899 31.7756 14.2235C32.1703 13.6574 32.0317 12.8783 31.4655 12.4835C30.683 11.9376 29.8466 11.493 28.9721 11.153C30.2558 9.98621 31.0629 8.30384 31.0629 6.43665C31.0629 2.92175 28.2035 0.0623779 24.6886 0.0623779C21.174 0.0623779 18.3146 2.92175 18.3146 6.43665C18.3146 8.29627 19.1152 9.97254 20.3901 11.1388C20.2155 11.2059 20.0419 11.277 19.87 11.3527C19.0878 11.6969 18.3525 12.1202 17.6686 12.6173C16.7255 10.2743 14.4294 8.61609 11.7528 8.61609C8.2382 8.61609 5.37858 11.4755 5.37858 14.9901C5.37858 16.8446 6.17472 18.5162 7.44279 19.682C4.05241 20.9523 1.30338 23.6805 0.18424 27.16C-0.186854 28.3139 0.00967932 29.5375 0.723547 30.5172C1.43741 31.4967 2.54191 32.0585 3.75382 32.0585H14.6276C15.3178 32.0585 15.8774 31.4989 15.8774 30.8085C15.8774 30.1183 15.3178 29.5587 14.6276 29.5587H3.75382C3.34977 29.5587 2.9816 29.3715 2.74357 29.0448C2.50553 28.7181 2.4401 28.3102 2.56364 27.9254C3.79899 24.0846 7.56657 21.4022 11.7255 21.4022C13.6606 21.4022 15.519 21.985 17.0995 23.0873C17.6657 23.4823 18.4447 23.3434 18.8398 22.7772C19.2345 22.2111 19.0959 21.432 18.5295 21.0372ZM24.6886 2.56213C26.8251 2.56213 28.5632 4.30017 28.5632 6.43665C28.5632 8.57288 26.8251 10.3112 24.6886 10.3112C22.5524 10.3112 20.8141 8.57288 20.8141 6.43665C20.8141 4.30017 22.5524 2.56213 24.6886 2.56213ZM11.7528 11.1156C13.8893 11.1156 15.6274 12.8539 15.6274 14.9901C15.6274 17.1266 13.8893 18.8646 11.7528 18.8646C9.61637 18.8646 7.87833 17.1266 7.87833 14.9901C7.87833 12.8539 9.61637 11.1156 11.7528 11.1156ZM32.0004 26.1217C32.0004 26.8119 31.4408 27.3715 30.7504 27.3715H27.3134V30.8085C27.3134 31.4989 26.7538 32.0585 26.0636 32.0585C25.3732 32.0585 24.8136 31.4989 24.8136 30.8085V27.3715H21.3766C20.6864 27.3715 20.1269 26.8119 20.1269 26.1217C20.1269 25.4313 20.6864 24.8717 21.3766 24.8717H24.8136V21.4347C24.8136 20.7445 25.3732 20.1849 26.0636 20.1849C26.7538 20.1849 27.3134 20.7445 27.3134 21.4347V24.8717H30.7504C31.4408 24.8717 32.0004 25.4313 32.0004 26.1217Z" fill="#6366F1"/>
</g>
<defs>
<clipPath id="clip0_4427_31470">
<rect width="32" height="32" fill="white"/>
</clipPath>
</defs>
</svg>
