<svg width="160" height="64" viewBox="0 0 160 64" fill="none" xmlns="http://www.w3.org/2000/svg">
<path d="M23.9414 44.825H49.5914V19.175H23.9414V44.825ZM44.6544 29.532H39.2344V24.112H44.6544V29.532ZM28.8774 24.112H34.3004V34.468H44.6544V39.888H28.8774V24.112ZM66.2944 19.175C63.7578 19.175 61.2782 19.9272 59.1692 21.3364C57.0601 22.7456 55.4163 24.7486 54.4456 27.0921C53.4749 29.4356 53.221 32.0142 53.7158 34.502C54.2107 36.9898 55.4321 39.275 57.2257 41.0686C59.0193 42.8623 61.3045 44.0837 63.7923 44.5786C66.2802 45.0734 68.8588 44.8195 71.2023 43.8488C73.5458 42.8781 75.5487 41.2343 76.958 39.1252C78.3672 37.0161 79.1194 34.5365 79.1194 32C79.1154 28.5998 77.7629 25.34 75.3586 22.9357C72.9543 20.5314 69.6946 19.179 66.2944 19.175ZM66.2944 39.888C64.7343 39.888 63.2092 39.4254 61.912 38.5586C60.6149 37.6919 59.6038 36.46 59.0068 35.0186C58.4098 33.5773 58.2536 31.9913 58.5579 30.4611C58.8623 28.931 59.6136 27.5255 60.7167 26.4223C61.8199 25.3192 63.2254 24.5679 64.7555 24.2636C66.2856 23.9592 67.8716 24.1154 69.313 24.7124C70.7543 25.3094 71.9863 26.3205 72.853 27.6177C73.7198 28.9148 74.1824 30.4399 74.1824 32C74.1792 34.0911 73.3471 36.0956 71.8685 37.5742C70.3899 39.0528 68.3854 39.8848 66.2944 39.888ZM125.013 19.175C122.476 19.1748 119.997 19.9268 117.888 21.3359C115.779 22.745 114.135 24.7479 113.164 27.0914C112.193 29.4348 111.939 32.0136 112.434 34.5014C112.928 36.9893 114.15 39.2746 115.943 41.0683C117.737 42.862 120.022 44.0836 122.51 44.5785C124.997 45.0734 127.576 44.8195 129.92 43.8489C132.263 42.8782 134.266 41.2344 135.675 39.1253C137.085 37.0162 137.837 34.5366 137.837 32C137.833 28.6 136.481 25.3403 134.077 22.9361C131.673 20.5318 128.413 19.1792 125.013 19.175ZM125.013 39.888C123.453 39.8882 121.928 39.4257 120.631 38.5591C119.334 37.6925 118.322 36.4606 117.725 35.0193C117.128 33.578 116.972 31.9919 117.276 30.4617C117.58 28.9316 118.331 27.526 119.434 26.4227C120.538 25.3194 121.943 24.5681 123.473 24.2636C125.003 23.9592 126.589 24.1153 128.03 24.7123C129.472 25.3093 130.704 26.3203 131.571 27.6176C132.437 28.9148 132.9 30.4399 132.9 32C132.897 34.0909 132.065 36.0952 130.586 37.5738C129.108 39.0524 127.104 39.8846 125.013 39.888ZM95.6534 19.175C93.1168 19.175 90.6372 19.9272 88.5282 21.3364C86.4191 22.7456 84.7753 24.7486 83.8046 27.0921C82.8339 29.4356 82.58 32.0142 83.0748 34.502C83.5697 36.9898 84.7911 39.275 86.5847 41.0686C88.3783 42.8623 90.6635 44.0837 93.1513 44.5786C95.6391 45.0734 98.2178 44.8195 100.561 43.8488C102.905 42.8781 104.908 41.2343 106.317 39.1252C107.726 37.0161 108.478 34.5365 108.478 32C108.474 28.5998 107.122 25.34 104.718 22.9357C102.313 20.5314 99.0536 19.179 95.6534 19.175ZM95.6534 39.888C94.1998 39.8887 92.7744 39.4878 91.5343 38.7295C90.2943 37.9712 89.2878 36.8851 88.6261 35.5909C87.9645 34.2967 87.6732 32.8448 87.7846 31.3956C87.896 29.9463 88.4056 28.556 89.2573 27.3781C90.109 26.2002 91.2696 25.2806 92.6109 24.7207C93.9523 24.1608 95.4223 23.9824 96.8586 24.2052C98.295 24.4281 99.6418 25.0434 100.751 25.9834C101.859 26.9234 102.687 28.1515 103.141 29.532H95.6534V34.468H103.141C102.621 36.0433 101.617 37.4147 100.273 38.3875C98.9288 39.3604 97.3126 39.8853 95.6534 39.888Z" fill="#B4B7C9"/>
</svg>
