<svg width="18" height="14" viewBox="0 0 18 14" fill="none" xmlns="http://www.w3.org/2000/svg">
<path d="M15.6665 0.333374H2.33317C1.414 0.333374 0.666504 1.08087 0.666504 2.00004V12C0.666504 12.9192 1.414 13.6667 2.33317 13.6667H15.6665C16.5857 13.6667 17.3332 12.9192 17.3332 12V2.00004C17.3332 1.08087 16.5857 0.333374 15.6665 0.333374ZM15.6665 2.00004V2.42587L8.99984 7.61171L2.33317 2.42671V2.00004H15.6665ZM2.33317 12V4.53671L8.48817 9.32421C8.63817 9.44171 8.819 9.50004 8.99984 9.50004C9.18067 9.50004 9.3615 9.44171 9.5115 9.32421L15.6665 4.53671L15.6682 12H2.33317Z" fill="#B4B7C9"/>
</svg>
